<mxfile host="app.diagrams.net" modified="2023-09-26T08:21:54.235Z" agent="Mozilla/5.0 (Windows NT 10.0; Win64; x64; rv:109.0) Gecko/20100101 Firefox/117.0" etag="FJpw0MELK5TdwJX3YfRm" version="21.8.2" type="github">
  <diagram id="C5RBs43oDa-KdzZeNtuy" name="Page-1">
    <mxGraphModel dx="1275" dy="656" grid="1" gridSize="10" guides="1" tooltips="1" connect="1" arrows="1" fold="1" page="1" pageScale="1" pageWidth="500" pageHeight="1200" background="none" math="0" shadow="0">
      <root>
        <mxCell id="WIyWlLk6GJQsqaUBKTNV-0" />
        <mxCell id="WIyWlLk6GJQsqaUBKTNV-1" parent="WIyWlLk6GJQsqaUBKTNV-0" />
        <mxCell id="WIyWlLk6GJQsqaUBKTNV-2" value="" style="rounded=0;html=1;jettySize=auto;orthogonalLoop=1;fontSize=11;endArrow=block;endFill=0;endSize=8;strokeWidth=1;shadow=0;labelBackgroundColor=none;edgeStyle=orthogonalEdgeStyle;" parent="WIyWlLk6GJQsqaUBKTNV-1" source="WIyWlLk6GJQsqaUBKTNV-3" target="WIyWlLk6GJQsqaUBKTNV-6" edge="1">
          <mxGeometry relative="1" as="geometry" />
        </mxCell>
        <mxCell id="WIyWlLk6GJQsqaUBKTNV-3" value="insert card" style="rounded=1;whiteSpace=wrap;html=1;fontSize=12;glass=0;strokeWidth=1;shadow=0;" parent="WIyWlLk6GJQsqaUBKTNV-1" vertex="1">
          <mxGeometry x="60" y="40" width="120" height="40" as="geometry" />
        </mxCell>
        <mxCell id="WIyWlLk6GJQsqaUBKTNV-5" value="" style="edgeStyle=orthogonalEdgeStyle;rounded=0;html=1;jettySize=auto;orthogonalLoop=1;fontSize=11;endArrow=block;endFill=0;endSize=8;strokeWidth=1;shadow=0;labelBackgroundColor=none;" parent="WIyWlLk6GJQsqaUBKTNV-1" source="WIyWlLk6GJQsqaUBKTNV-6" edge="1">
          <mxGeometry y="10" relative="1" as="geometry">
            <mxPoint as="offset" />
            <mxPoint x="220" y="170" as="targetPoint" />
          </mxGeometry>
        </mxCell>
        <mxCell id="kFrVJk0bqqYHsrvZsuyP-3" value="No" style="edgeLabel;html=1;align=center;verticalAlign=middle;resizable=0;points=[];" vertex="1" connectable="0" parent="WIyWlLk6GJQsqaUBKTNV-5">
          <mxGeometry x="-0.5111" relative="1" as="geometry">
            <mxPoint as="offset" />
          </mxGeometry>
        </mxCell>
        <mxCell id="WIyWlLk6GJQsqaUBKTNV-6" value="master card ?" style="rhombus;whiteSpace=wrap;html=1;shadow=0;fontFamily=Helvetica;fontSize=12;align=center;strokeWidth=1;spacing=6;spacingTop=-4;" parent="WIyWlLk6GJQsqaUBKTNV-1" vertex="1">
          <mxGeometry x="70" y="130" width="100" height="80" as="geometry" />
        </mxCell>
        <object label="" id="lWDbEQPb5hyfI6znCA0R-2">
          <mxCell style="endArrow=classic;html=1;rounded=0;" parent="WIyWlLk6GJQsqaUBKTNV-1" edge="1">
            <mxGeometry width="50" height="50" relative="1" as="geometry">
              <mxPoint x="119.5" y="210" as="sourcePoint" />
              <mxPoint x="120" y="260" as="targetPoint" />
            </mxGeometry>
          </mxCell>
        </object>
        <mxCell id="lWDbEQPb5hyfI6znCA0R-3" value="Yes" style="text;html=1;strokeColor=none;fillColor=none;align=center;verticalAlign=middle;whiteSpace=wrap;rounded=0;" parent="WIyWlLk6GJQsqaUBKTNV-1" vertex="1">
          <mxGeometry x="120" y="210" width="60" height="30" as="geometry" />
        </mxCell>
        <mxCell id="kFrVJk0bqqYHsrvZsuyP-58" style="edgeStyle=orthogonalEdgeStyle;rounded=0;orthogonalLoop=1;jettySize=auto;html=1;exitX=1;exitY=0.5;exitDx=0;exitDy=0;entryX=0.5;entryY=0;entryDx=0;entryDy=0;" edge="1" parent="WIyWlLk6GJQsqaUBKTNV-1" source="lWDbEQPb5hyfI6znCA0R-5" target="lWDbEQPb5hyfI6znCA0R-78">
          <mxGeometry relative="1" as="geometry" />
        </mxCell>
        <mxCell id="kFrVJk0bqqYHsrvZsuyP-59" value="want to exist" style="edgeLabel;html=1;align=center;verticalAlign=middle;resizable=0;points=[];" vertex="1" connectable="0" parent="kFrVJk0bqqYHsrvZsuyP-58">
          <mxGeometry x="-0.8934" y="2" relative="1" as="geometry">
            <mxPoint as="offset" />
          </mxGeometry>
        </mxCell>
        <mxCell id="lWDbEQPb5hyfI6znCA0R-5" value="insert code" style="rounded=1;whiteSpace=wrap;html=1;" parent="WIyWlLk6GJQsqaUBKTNV-1" vertex="1">
          <mxGeometry x="60" y="260" width="120" height="40" as="geometry" />
        </mxCell>
        <mxCell id="lWDbEQPb5hyfI6znCA0R-45" style="edgeStyle=orthogonalEdgeStyle;rounded=0;orthogonalLoop=1;jettySize=auto;html=1;exitX=0.5;exitY=1;exitDx=0;exitDy=0;entryX=0.5;entryY=0;entryDx=0;entryDy=0;" parent="WIyWlLk6GJQsqaUBKTNV-1" source="lWDbEQPb5hyfI6znCA0R-6" target="lWDbEQPb5hyfI6znCA0R-29" edge="1">
          <mxGeometry relative="1" as="geometry" />
        </mxCell>
        <mxCell id="lWDbEQPb5hyfI6znCA0R-56" value="No" style="edgeLabel;html=1;align=center;verticalAlign=middle;resizable=0;points=[];" parent="lWDbEQPb5hyfI6znCA0R-45" vertex="1" connectable="0">
          <mxGeometry x="0.0095" y="1" relative="1" as="geometry">
            <mxPoint x="-1" as="offset" />
          </mxGeometry>
        </mxCell>
        <mxCell id="lWDbEQPb5hyfI6znCA0R-6" value="&lt;p align=&quot;center&quot; style=&quot;line-height: 120%; font-size: 10px;&quot;&gt;inserted code = change pass code?&lt;/p&gt;" style="rhombus;whiteSpace=wrap;html=1;align=center;" parent="WIyWlLk6GJQsqaUBKTNV-1" vertex="1">
          <mxGeometry x="60" y="340" width="120" height="100" as="geometry" />
        </mxCell>
        <mxCell id="lWDbEQPb5hyfI6znCA0R-7" value="" style="endArrow=classic;html=1;rounded=0;" parent="WIyWlLk6GJQsqaUBKTNV-1" edge="1">
          <mxGeometry width="50" height="50" relative="1" as="geometry">
            <mxPoint x="120" y="300" as="sourcePoint" />
            <mxPoint x="120" y="340" as="targetPoint" />
          </mxGeometry>
        </mxCell>
        <mxCell id="lWDbEQPb5hyfI6znCA0R-8" value="" style="endArrow=classic;html=1;rounded=0;entryX=0;entryY=0.5;entryDx=0;entryDy=0;" parent="WIyWlLk6GJQsqaUBKTNV-1" target="lWDbEQPb5hyfI6znCA0R-10" edge="1">
          <mxGeometry width="50" height="50" relative="1" as="geometry">
            <mxPoint x="180" y="389.5" as="sourcePoint" />
            <mxPoint x="250" y="390" as="targetPoint" />
          </mxGeometry>
        </mxCell>
        <mxCell id="lWDbEQPb5hyfI6znCA0R-36" value="Yes" style="edgeLabel;html=1;align=center;verticalAlign=middle;resizable=0;points=[];" parent="lWDbEQPb5hyfI6znCA0R-8" vertex="1" connectable="0">
          <mxGeometry x="0.023" y="1" relative="1" as="geometry">
            <mxPoint as="offset" />
          </mxGeometry>
        </mxCell>
        <mxCell id="lWDbEQPb5hyfI6znCA0R-37" style="edgeStyle=orthogonalEdgeStyle;rounded=0;orthogonalLoop=1;jettySize=auto;html=1;exitX=0.5;exitY=1;exitDx=0;exitDy=0;entryX=0.5;entryY=0;entryDx=0;entryDy=0;" parent="WIyWlLk6GJQsqaUBKTNV-1" source="lWDbEQPb5hyfI6znCA0R-10" target="lWDbEQPb5hyfI6znCA0R-11" edge="1">
          <mxGeometry relative="1" as="geometry" />
        </mxCell>
        <mxCell id="lWDbEQPb5hyfI6znCA0R-38" value="successfull" style="edgeLabel;html=1;align=center;verticalAlign=middle;resizable=0;points=[];" parent="lWDbEQPb5hyfI6znCA0R-37" vertex="1" connectable="0">
          <mxGeometry x="0.0286" relative="1" as="geometry">
            <mxPoint as="offset" />
          </mxGeometry>
        </mxCell>
        <mxCell id="lWDbEQPb5hyfI6znCA0R-85" style="edgeStyle=orthogonalEdgeStyle;rounded=0;orthogonalLoop=1;jettySize=auto;html=1;exitX=1;exitY=0.5;exitDx=0;exitDy=0;entryX=0.5;entryY=0;entryDx=0;entryDy=0;" parent="WIyWlLk6GJQsqaUBKTNV-1" source="lWDbEQPb5hyfI6znCA0R-10" target="lWDbEQPb5hyfI6znCA0R-78" edge="1">
          <mxGeometry relative="1" as="geometry" />
        </mxCell>
        <mxCell id="kFrVJk0bqqYHsrvZsuyP-60" value="want to exit" style="edgeLabel;html=1;align=center;verticalAlign=middle;resizable=0;points=[];" vertex="1" connectable="0" parent="lWDbEQPb5hyfI6znCA0R-85">
          <mxGeometry x="-0.734" relative="1" as="geometry">
            <mxPoint as="offset" />
          </mxGeometry>
        </mxCell>
        <mxCell id="lWDbEQPb5hyfI6znCA0R-10" value="insert new pass" style="rounded=1;whiteSpace=wrap;html=1;" parent="WIyWlLk6GJQsqaUBKTNV-1" vertex="1">
          <mxGeometry x="354" y="370" width="120" height="40" as="geometry" />
        </mxCell>
        <mxCell id="lWDbEQPb5hyfI6znCA0R-11" value="insert new pass again" style="rounded=1;whiteSpace=wrap;html=1;" parent="WIyWlLk6GJQsqaUBKTNV-1" vertex="1">
          <mxGeometry x="354" y="470" width="120" height="40" as="geometry" />
        </mxCell>
        <mxCell id="lWDbEQPb5hyfI6znCA0R-77" style="edgeStyle=orthogonalEdgeStyle;rounded=0;orthogonalLoop=1;jettySize=auto;html=1;exitX=0.5;exitY=1;exitDx=0;exitDy=0;entryX=0.5;entryY=0;entryDx=0;entryDy=0;" parent="WIyWlLk6GJQsqaUBKTNV-1" source="lWDbEQPb5hyfI6znCA0R-13" target="lWDbEQPb5hyfI6znCA0R-76" edge="1">
          <mxGeometry relative="1" as="geometry" />
        </mxCell>
        <mxCell id="lWDbEQPb5hyfI6znCA0R-13" value="1st new pass= 2nd new pass ?" style="rhombus;whiteSpace=wrap;html=1;" parent="WIyWlLk6GJQsqaUBKTNV-1" vertex="1">
          <mxGeometry x="350" y="580" width="120" height="110" as="geometry" />
        </mxCell>
        <mxCell id="lWDbEQPb5hyfI6znCA0R-75" style="edgeStyle=orthogonalEdgeStyle;rounded=0;orthogonalLoop=1;jettySize=auto;html=1;exitX=0.5;exitY=1;exitDx=0;exitDy=0;entryX=0.5;entryY=0;entryDx=0;entryDy=0;" parent="WIyWlLk6GJQsqaUBKTNV-1" source="lWDbEQPb5hyfI6znCA0R-29" target="lWDbEQPb5hyfI6znCA0R-65" edge="1">
          <mxGeometry relative="1" as="geometry" />
        </mxCell>
        <mxCell id="lWDbEQPb5hyfI6znCA0R-92" value="No" style="edgeLabel;html=1;align=center;verticalAlign=middle;resizable=0;points=[];" parent="lWDbEQPb5hyfI6znCA0R-75" vertex="1" connectable="0">
          <mxGeometry x="-0.0004" y="-1" relative="1" as="geometry">
            <mxPoint as="offset" />
          </mxGeometry>
        </mxCell>
        <mxCell id="lWDbEQPb5hyfI6znCA0R-29" value="inserted card = remove normal card code" style="rhombus;whiteSpace=wrap;html=1;" parent="WIyWlLk6GJQsqaUBKTNV-1" vertex="1">
          <mxGeometry x="60" y="787.5" width="120" height="90" as="geometry" />
        </mxCell>
        <mxCell id="lWDbEQPb5hyfI6znCA0R-40" value="" style="endArrow=classic;html=1;rounded=0;" parent="WIyWlLk6GJQsqaUBKTNV-1" edge="1">
          <mxGeometry width="50" height="50" relative="1" as="geometry">
            <mxPoint x="409.58000000000004" y="510" as="sourcePoint" />
            <mxPoint x="409.58000000000004" y="580" as="targetPoint" />
          </mxGeometry>
        </mxCell>
        <mxCell id="lWDbEQPb5hyfI6znCA0R-51" value="successfull" style="edgeLabel;html=1;align=center;verticalAlign=middle;resizable=0;points=[];" parent="lWDbEQPb5hyfI6znCA0R-40" vertex="1" connectable="0">
          <mxGeometry x="-0.0238" y="1" relative="1" as="geometry">
            <mxPoint as="offset" />
          </mxGeometry>
        </mxCell>
        <mxCell id="lWDbEQPb5hyfI6znCA0R-48" value="" style="endArrow=none;html=1;rounded=0;entryX=0;entryY=0.5;entryDx=0;entryDy=0;" parent="WIyWlLk6GJQsqaUBKTNV-1" target="lWDbEQPb5hyfI6znCA0R-13" edge="1">
          <mxGeometry width="50" height="50" relative="1" as="geometry">
            <mxPoint x="290" y="635" as="sourcePoint" />
            <mxPoint x="330" y="590" as="targetPoint" />
          </mxGeometry>
        </mxCell>
        <mxCell id="lWDbEQPb5hyfI6znCA0R-49" value="" style="endArrow=none;html=1;rounded=0;" parent="WIyWlLk6GJQsqaUBKTNV-1" edge="1">
          <mxGeometry width="50" height="50" relative="1" as="geometry">
            <mxPoint x="290" y="635" as="sourcePoint" />
            <mxPoint x="290" y="400" as="targetPoint" />
          </mxGeometry>
        </mxCell>
        <mxCell id="lWDbEQPb5hyfI6znCA0R-50" value="" style="endArrow=classic;html=1;rounded=0;entryX=0;entryY=0.75;entryDx=0;entryDy=0;" parent="WIyWlLk6GJQsqaUBKTNV-1" target="lWDbEQPb5hyfI6znCA0R-10" edge="1">
          <mxGeometry width="50" height="50" relative="1" as="geometry">
            <mxPoint x="290" y="400" as="sourcePoint" />
            <mxPoint x="350" y="400" as="targetPoint" />
          </mxGeometry>
        </mxCell>
        <mxCell id="lWDbEQPb5hyfI6znCA0R-54" value="" style="endArrow=classic;html=1;rounded=0;exitX=1;exitY=0.5;exitDx=0;exitDy=0;" parent="WIyWlLk6GJQsqaUBKTNV-1" source="lWDbEQPb5hyfI6znCA0R-29" edge="1">
          <mxGeometry width="50" height="50" relative="1" as="geometry">
            <mxPoint x="180" y="840" as="sourcePoint" />
            <mxPoint x="354" y="832.5" as="targetPoint" />
          </mxGeometry>
        </mxCell>
        <mxCell id="kFrVJk0bqqYHsrvZsuyP-4" value="Yes" style="edgeLabel;html=1;align=center;verticalAlign=middle;resizable=0;points=[];" vertex="1" connectable="0" parent="lWDbEQPb5hyfI6znCA0R-54">
          <mxGeometry x="0.0102" y="-1" relative="1" as="geometry">
            <mxPoint y="-1" as="offset" />
          </mxGeometry>
        </mxCell>
        <mxCell id="lWDbEQPb5hyfI6znCA0R-67" style="edgeStyle=orthogonalEdgeStyle;rounded=0;orthogonalLoop=1;jettySize=auto;html=1;exitX=1;exitY=0.5;exitDx=0;exitDy=0;entryX=0;entryY=0.5;entryDx=0;entryDy=0;" parent="WIyWlLk6GJQsqaUBKTNV-1" source="lWDbEQPb5hyfI6znCA0R-65" target="lWDbEQPb5hyfI6znCA0R-66" edge="1">
          <mxGeometry relative="1" as="geometry" />
        </mxCell>
        <mxCell id="kFrVJk0bqqYHsrvZsuyP-5" value="Yes" style="edgeLabel;html=1;align=center;verticalAlign=middle;resizable=0;points=[];" vertex="1" connectable="0" parent="lWDbEQPb5hyfI6znCA0R-67">
          <mxGeometry x="0.0272" y="1" relative="1" as="geometry">
            <mxPoint as="offset" />
          </mxGeometry>
        </mxCell>
        <mxCell id="lWDbEQPb5hyfI6znCA0R-121" style="edgeStyle=orthogonalEdgeStyle;rounded=0;orthogonalLoop=1;jettySize=auto;html=1;exitX=0.5;exitY=1;exitDx=0;exitDy=0;entryX=0.5;entryY=0;entryDx=0;entryDy=0;" parent="WIyWlLk6GJQsqaUBKTNV-1" source="lWDbEQPb5hyfI6znCA0R-65" target="lWDbEQPb5hyfI6znCA0R-93" edge="1">
          <mxGeometry relative="1" as="geometry" />
        </mxCell>
        <mxCell id="lWDbEQPb5hyfI6znCA0R-122" value="No" style="edgeLabel;html=1;align=center;verticalAlign=middle;resizable=0;points=[];" parent="lWDbEQPb5hyfI6znCA0R-121" vertex="1" connectable="0">
          <mxGeometry x="-0.0396" y="-1" relative="1" as="geometry">
            <mxPoint as="offset" />
          </mxGeometry>
        </mxCell>
        <mxCell id="lWDbEQPb5hyfI6znCA0R-65" value="inserted code = insert card code ?" style="rhombus;whiteSpace=wrap;html=1;" parent="WIyWlLk6GJQsqaUBKTNV-1" vertex="1">
          <mxGeometry x="55" y="1200" width="130" height="90" as="geometry" />
        </mxCell>
        <mxCell id="lWDbEQPb5hyfI6znCA0R-69" style="edgeStyle=orthogonalEdgeStyle;rounded=0;orthogonalLoop=1;jettySize=auto;html=1;exitX=0.5;exitY=1;exitDx=0;exitDy=0;entryX=0.5;entryY=0;entryDx=0;entryDy=0;" parent="WIyWlLk6GJQsqaUBKTNV-1" source="lWDbEQPb5hyfI6znCA0R-66" target="lWDbEQPb5hyfI6znCA0R-68" edge="1">
          <mxGeometry relative="1" as="geometry" />
        </mxCell>
        <mxCell id="kFrVJk0bqqYHsrvZsuyP-13" value="Successfull" style="edgeLabel;html=1;align=center;verticalAlign=middle;resizable=0;points=[];" vertex="1" connectable="0" parent="lWDbEQPb5hyfI6znCA0R-69">
          <mxGeometry x="-0.157" relative="1" as="geometry">
            <mxPoint as="offset" />
          </mxGeometry>
        </mxCell>
        <mxCell id="lWDbEQPb5hyfI6znCA0R-88" style="edgeStyle=orthogonalEdgeStyle;rounded=0;orthogonalLoop=1;jettySize=auto;html=1;exitX=1;exitY=0.5;exitDx=0;exitDy=0;entryX=0.5;entryY=1;entryDx=0;entryDy=0;" parent="WIyWlLk6GJQsqaUBKTNV-1" source="lWDbEQPb5hyfI6znCA0R-66" target="lWDbEQPb5hyfI6znCA0R-78" edge="1">
          <mxGeometry relative="1" as="geometry" />
        </mxCell>
        <mxCell id="kFrVJk0bqqYHsrvZsuyP-62" value="want to exit" style="edgeLabel;html=1;align=center;verticalAlign=middle;resizable=0;points=[];" vertex="1" connectable="0" parent="lWDbEQPb5hyfI6znCA0R-88">
          <mxGeometry x="-0.6495" y="-3" relative="1" as="geometry">
            <mxPoint as="offset" />
          </mxGeometry>
        </mxCell>
        <mxCell id="lWDbEQPb5hyfI6znCA0R-66" value="insert new card" style="rounded=1;whiteSpace=wrap;html=1;" parent="WIyWlLk6GJQsqaUBKTNV-1" vertex="1">
          <mxGeometry x="354" y="1222.5" width="120" height="45" as="geometry" />
        </mxCell>
        <mxCell id="lWDbEQPb5hyfI6znCA0R-90" style="edgeStyle=orthogonalEdgeStyle;rounded=0;orthogonalLoop=1;jettySize=auto;html=1;exitX=1;exitY=0.5;exitDx=0;exitDy=0;entryX=0.5;entryY=1;entryDx=0;entryDy=0;" parent="WIyWlLk6GJQsqaUBKTNV-1" source="lWDbEQPb5hyfI6znCA0R-68" target="lWDbEQPb5hyfI6znCA0R-78" edge="1">
          <mxGeometry relative="1" as="geometry" />
        </mxCell>
        <mxCell id="lWDbEQPb5hyfI6znCA0R-91" value="&lt;div&gt;No&lt;/div&gt;" style="edgeLabel;html=1;align=center;verticalAlign=middle;resizable=0;points=[];" parent="lWDbEQPb5hyfI6znCA0R-90" vertex="1" connectable="0">
          <mxGeometry x="-0.6185" y="1" relative="1" as="geometry">
            <mxPoint as="offset" />
          </mxGeometry>
        </mxCell>
        <mxCell id="lWDbEQPb5hyfI6znCA0R-68" value="continue ?" style="rhombus;whiteSpace=wrap;html=1;" parent="WIyWlLk6GJQsqaUBKTNV-1" vertex="1">
          <mxGeometry x="374" y="1310" width="80" height="80" as="geometry" />
        </mxCell>
        <mxCell id="lWDbEQPb5hyfI6znCA0R-70" value="" style="endArrow=none;html=1;rounded=0;entryX=0;entryY=0.5;entryDx=0;entryDy=0;" parent="WIyWlLk6GJQsqaUBKTNV-1" target="lWDbEQPb5hyfI6znCA0R-68" edge="1">
          <mxGeometry width="50" height="50" relative="1" as="geometry">
            <mxPoint x="320" y="1350" as="sourcePoint" />
            <mxPoint x="354" y="1349.62" as="targetPoint" />
          </mxGeometry>
        </mxCell>
        <mxCell id="lWDbEQPb5hyfI6znCA0R-72" value="" style="endArrow=none;html=1;rounded=0;" parent="WIyWlLk6GJQsqaUBKTNV-1" edge="1">
          <mxGeometry width="50" height="50" relative="1" as="geometry">
            <mxPoint x="320" y="1350" as="sourcePoint" />
            <mxPoint x="320" y="1260" as="targetPoint" />
          </mxGeometry>
        </mxCell>
        <mxCell id="lWDbEQPb5hyfI6znCA0R-74" value="&lt;div&gt;Yes&lt;/div&gt;" style="edgeLabel;html=1;align=center;verticalAlign=middle;resizable=0;points=[];" parent="lWDbEQPb5hyfI6znCA0R-72" vertex="1" connectable="0">
          <mxGeometry x="-0.0108" relative="1" as="geometry">
            <mxPoint as="offset" />
          </mxGeometry>
        </mxCell>
        <mxCell id="lWDbEQPb5hyfI6znCA0R-73" value="" style="endArrow=classic;html=1;rounded=0;entryX=0;entryY=0.75;entryDx=0;entryDy=0;" parent="WIyWlLk6GJQsqaUBKTNV-1" edge="1">
          <mxGeometry width="50" height="50" relative="1" as="geometry">
            <mxPoint x="320" y="1260" as="sourcePoint" />
            <mxPoint x="354" y="1260.25" as="targetPoint" />
          </mxGeometry>
        </mxCell>
        <mxCell id="lWDbEQPb5hyfI6znCA0R-76" value="change pass" style="rounded=1;whiteSpace=wrap;html=1;" parent="WIyWlLk6GJQsqaUBKTNV-1" vertex="1">
          <mxGeometry x="350" y="720" width="120" height="40" as="geometry" />
        </mxCell>
        <mxCell id="lWDbEQPb5hyfI6znCA0R-116" style="edgeStyle=orthogonalEdgeStyle;rounded=0;orthogonalLoop=1;jettySize=auto;html=1;exitX=1;exitY=0.5;exitDx=0;exitDy=0;entryX=0;entryY=0.5;entryDx=0;entryDy=0;" parent="WIyWlLk6GJQsqaUBKTNV-1" source="lWDbEQPb5hyfI6znCA0R-78" target="lWDbEQPb5hyfI6znCA0R-113" edge="1">
          <mxGeometry relative="1" as="geometry" />
        </mxCell>
        <mxCell id="lWDbEQPb5hyfI6znCA0R-78" value="insert exit code" style="rounded=1;whiteSpace=wrap;html=1;" parent="WIyWlLk6GJQsqaUBKTNV-1" vertex="1">
          <mxGeometry x="610" y="812.5" width="120" height="40" as="geometry" />
        </mxCell>
        <mxCell id="lWDbEQPb5hyfI6znCA0R-84" value="the lock is opened" style="rounded=0;whiteSpace=wrap;html=1;" parent="WIyWlLk6GJQsqaUBKTNV-1" vertex="1">
          <mxGeometry x="220" y="150" width="120" height="40" as="geometry" />
        </mxCell>
        <mxCell id="lWDbEQPb5hyfI6znCA0R-95" style="edgeStyle=orthogonalEdgeStyle;rounded=0;orthogonalLoop=1;jettySize=auto;html=1;exitX=1;exitY=0.5;exitDx=0;exitDy=0;entryX=0;entryY=0.5;entryDx=0;entryDy=0;" parent="WIyWlLk6GJQsqaUBKTNV-1" source="lWDbEQPb5hyfI6znCA0R-93" target="lWDbEQPb5hyfI6znCA0R-94" edge="1">
          <mxGeometry relative="1" as="geometry" />
        </mxCell>
        <mxCell id="kFrVJk0bqqYHsrvZsuyP-6" value="Yes" style="edgeLabel;html=1;align=center;verticalAlign=middle;resizable=0;points=[];" vertex="1" connectable="0" parent="lWDbEQPb5hyfI6znCA0R-95">
          <mxGeometry x="-0.0012" relative="1" as="geometry">
            <mxPoint as="offset" />
          </mxGeometry>
        </mxCell>
        <mxCell id="kFrVJk0bqqYHsrvZsuyP-1" style="edgeStyle=orthogonalEdgeStyle;rounded=0;orthogonalLoop=1;jettySize=auto;html=1;exitX=0.5;exitY=1;exitDx=0;exitDy=0;entryX=0.5;entryY=0;entryDx=0;entryDy=0;" edge="1" parent="WIyWlLk6GJQsqaUBKTNV-1" source="lWDbEQPb5hyfI6znCA0R-93" target="kFrVJk0bqqYHsrvZsuyP-0">
          <mxGeometry relative="1" as="geometry" />
        </mxCell>
        <mxCell id="kFrVJk0bqqYHsrvZsuyP-2" value="No" style="edgeLabel;html=1;align=center;verticalAlign=middle;resizable=0;points=[];" vertex="1" connectable="0" parent="kFrVJk0bqqYHsrvZsuyP-1">
          <mxGeometry x="-0.0118" y="-1" relative="1" as="geometry">
            <mxPoint as="offset" />
          </mxGeometry>
        </mxCell>
        <mxCell id="lWDbEQPb5hyfI6znCA0R-93" value="inserted code = insert master card code ?" style="rhombus;whiteSpace=wrap;html=1;" parent="WIyWlLk6GJQsqaUBKTNV-1" vertex="1">
          <mxGeometry x="55" y="1420" width="130" height="90" as="geometry" />
        </mxCell>
        <mxCell id="lWDbEQPb5hyfI6znCA0R-100" style="edgeStyle=orthogonalEdgeStyle;rounded=0;orthogonalLoop=1;jettySize=auto;html=1;exitX=0.5;exitY=1;exitDx=0;exitDy=0;entryX=0.5;entryY=0;entryDx=0;entryDy=0;" parent="WIyWlLk6GJQsqaUBKTNV-1" source="lWDbEQPb5hyfI6znCA0R-94" target="lWDbEQPb5hyfI6znCA0R-96" edge="1">
          <mxGeometry relative="1" as="geometry" />
        </mxCell>
        <mxCell id="kFrVJk0bqqYHsrvZsuyP-21" style="edgeStyle=orthogonalEdgeStyle;rounded=0;orthogonalLoop=1;jettySize=auto;html=1;exitX=1;exitY=0.5;exitDx=0;exitDy=0;entryX=0.5;entryY=1;entryDx=0;entryDy=0;" edge="1" parent="WIyWlLk6GJQsqaUBKTNV-1" source="lWDbEQPb5hyfI6znCA0R-94" target="lWDbEQPb5hyfI6znCA0R-78">
          <mxGeometry relative="1" as="geometry" />
        </mxCell>
        <mxCell id="kFrVJk0bqqYHsrvZsuyP-63" value="want to exist" style="edgeLabel;html=1;align=center;verticalAlign=middle;resizable=0;points=[];" vertex="1" connectable="0" parent="kFrVJk0bqqYHsrvZsuyP-21">
          <mxGeometry x="-0.7513" y="-1" relative="1" as="geometry">
            <mxPoint as="offset" />
          </mxGeometry>
        </mxCell>
        <mxCell id="lWDbEQPb5hyfI6znCA0R-94" value="insert new card" style="rounded=1;whiteSpace=wrap;html=1;" parent="WIyWlLk6GJQsqaUBKTNV-1" vertex="1">
          <mxGeometry x="350" y="1445" width="120" height="40" as="geometry" />
        </mxCell>
        <mxCell id="lWDbEQPb5hyfI6znCA0R-102" style="edgeStyle=orthogonalEdgeStyle;rounded=0;orthogonalLoop=1;jettySize=auto;html=1;exitX=0.5;exitY=1;exitDx=0;exitDy=0;entryX=0.5;entryY=0;entryDx=0;entryDy=0;" parent="WIyWlLk6GJQsqaUBKTNV-1" source="lWDbEQPb5hyfI6znCA0R-96" target="lWDbEQPb5hyfI6znCA0R-101" edge="1">
          <mxGeometry relative="1" as="geometry" />
        </mxCell>
        <mxCell id="lWDbEQPb5hyfI6znCA0R-96" value="set the latest inserted master" style="rounded=1;whiteSpace=wrap;html=1;" parent="WIyWlLk6GJQsqaUBKTNV-1" vertex="1">
          <mxGeometry x="350" y="1520" width="120" height="40" as="geometry" />
        </mxCell>
        <mxCell id="lWDbEQPb5hyfI6znCA0R-108" style="edgeStyle=orthogonalEdgeStyle;rounded=0;orthogonalLoop=1;jettySize=auto;html=1;exitX=1;exitY=0.5;exitDx=0;exitDy=0;entryX=0.5;entryY=1;entryDx=0;entryDy=0;" parent="WIyWlLk6GJQsqaUBKTNV-1" source="lWDbEQPb5hyfI6znCA0R-101" target="lWDbEQPb5hyfI6znCA0R-78" edge="1">
          <mxGeometry relative="1" as="geometry" />
        </mxCell>
        <mxCell id="lWDbEQPb5hyfI6znCA0R-110" value="&lt;div&gt;No&lt;/div&gt;" style="edgeLabel;html=1;align=center;verticalAlign=middle;resizable=0;points=[];" parent="lWDbEQPb5hyfI6znCA0R-108" vertex="1" connectable="0">
          <mxGeometry x="-0.7455" y="1" relative="1" as="geometry">
            <mxPoint as="offset" />
          </mxGeometry>
        </mxCell>
        <mxCell id="lWDbEQPb5hyfI6znCA0R-101" value="continue ?" style="rhombus;whiteSpace=wrap;html=1;" parent="WIyWlLk6GJQsqaUBKTNV-1" vertex="1">
          <mxGeometry x="370" y="1600" width="80" height="80" as="geometry" />
        </mxCell>
        <mxCell id="lWDbEQPb5hyfI6znCA0R-104" value="" style="endArrow=none;html=1;rounded=0;" parent="WIyWlLk6GJQsqaUBKTNV-1" edge="1">
          <mxGeometry width="50" height="50" relative="1" as="geometry">
            <mxPoint x="320" y="1640" as="sourcePoint" />
            <mxPoint x="370" y="1640" as="targetPoint" />
          </mxGeometry>
        </mxCell>
        <mxCell id="lWDbEQPb5hyfI6znCA0R-105" value="" style="endArrow=none;html=1;rounded=0;" parent="WIyWlLk6GJQsqaUBKTNV-1" edge="1">
          <mxGeometry width="50" height="50" relative="1" as="geometry">
            <mxPoint x="320" y="1640" as="sourcePoint" />
            <mxPoint x="320" y="1480" as="targetPoint" />
          </mxGeometry>
        </mxCell>
        <mxCell id="lWDbEQPb5hyfI6znCA0R-109" value="Yes" style="edgeLabel;html=1;align=center;verticalAlign=middle;resizable=0;points=[];" parent="lWDbEQPb5hyfI6znCA0R-105" vertex="1" connectable="0">
          <mxGeometry x="0.001" y="1" relative="1" as="geometry">
            <mxPoint as="offset" />
          </mxGeometry>
        </mxCell>
        <mxCell id="lWDbEQPb5hyfI6znCA0R-106" value="" style="endArrow=classic;html=1;rounded=0;" parent="WIyWlLk6GJQsqaUBKTNV-1" edge="1">
          <mxGeometry width="50" height="50" relative="1" as="geometry">
            <mxPoint x="320" y="1480" as="sourcePoint" />
            <mxPoint x="350" y="1480" as="targetPoint" />
          </mxGeometry>
        </mxCell>
        <mxCell id="lWDbEQPb5hyfI6znCA0R-111" value="" style="endArrow=none;html=1;rounded=0;" parent="WIyWlLk6GJQsqaUBKTNV-1" edge="1">
          <mxGeometry width="50" height="50" relative="1" as="geometry">
            <mxPoint x="470" y="740" as="sourcePoint" />
            <mxPoint x="510" y="740" as="targetPoint" />
          </mxGeometry>
        </mxCell>
        <mxCell id="lWDbEQPb5hyfI6znCA0R-112" value="&lt;div&gt;1&lt;/div&gt;" style="edgeLabel;html=1;align=center;verticalAlign=middle;resizable=0;points=[];" parent="lWDbEQPb5hyfI6znCA0R-111" vertex="1" connectable="0">
          <mxGeometry x="-0.05" y="1" relative="1" as="geometry">
            <mxPoint y="1" as="offset" />
          </mxGeometry>
        </mxCell>
        <mxCell id="lWDbEQPb5hyfI6znCA0R-113" value="Exit" style="rounded=0;whiteSpace=wrap;html=1;" parent="WIyWlLk6GJQsqaUBKTNV-1" vertex="1">
          <mxGeometry x="870" y="812.5" width="120" height="40" as="geometry" />
        </mxCell>
        <mxCell id="lWDbEQPb5hyfI6znCA0R-119" value="" style="endArrow=classic;html=1;rounded=0;" parent="WIyWlLk6GJQsqaUBKTNV-1" edge="1">
          <mxGeometry width="50" height="50" relative="1" as="geometry">
            <mxPoint x="930" y="900" as="sourcePoint" />
            <mxPoint x="930" y="855" as="targetPoint" />
          </mxGeometry>
        </mxCell>
        <mxCell id="lWDbEQPb5hyfI6znCA0R-120" value="1" style="edgeLabel;html=1;align=center;verticalAlign=middle;resizable=0;points=[];" parent="lWDbEQPb5hyfI6znCA0R-119" vertex="1" connectable="0">
          <mxGeometry x="0.0068" y="-1" relative="1" as="geometry">
            <mxPoint as="offset" />
          </mxGeometry>
        </mxCell>
        <mxCell id="kFrVJk0bqqYHsrvZsuyP-8" style="edgeStyle=orthogonalEdgeStyle;rounded=0;orthogonalLoop=1;jettySize=auto;html=1;exitX=1;exitY=0.5;exitDx=0;exitDy=0;entryX=0;entryY=0.5;entryDx=0;entryDy=0;" edge="1" parent="WIyWlLk6GJQsqaUBKTNV-1" source="kFrVJk0bqqYHsrvZsuyP-0" target="kFrVJk0bqqYHsrvZsuyP-7">
          <mxGeometry relative="1" as="geometry" />
        </mxCell>
        <mxCell id="kFrVJk0bqqYHsrvZsuyP-9" value="Yes" style="edgeLabel;html=1;align=center;verticalAlign=middle;resizable=0;points=[];" vertex="1" connectable="0" parent="kFrVJk0bqqYHsrvZsuyP-8">
          <mxGeometry x="0.0036" y="1" relative="1" as="geometry">
            <mxPoint as="offset" />
          </mxGeometry>
        </mxCell>
        <mxCell id="kFrVJk0bqqYHsrvZsuyP-0" value="inserted code = remove master" style="rhombus;whiteSpace=wrap;html=1;" vertex="1" parent="WIyWlLk6GJQsqaUBKTNV-1">
          <mxGeometry x="55" y="1700" width="130" height="80" as="geometry" />
        </mxCell>
        <mxCell id="kFrVJk0bqqYHsrvZsuyP-15" style="edgeStyle=orthogonalEdgeStyle;rounded=0;orthogonalLoop=1;jettySize=auto;html=1;exitX=0.5;exitY=1;exitDx=0;exitDy=0;entryX=0.5;entryY=0;entryDx=0;entryDy=0;" edge="1" parent="WIyWlLk6GJQsqaUBKTNV-1" source="kFrVJk0bqqYHsrvZsuyP-7" target="kFrVJk0bqqYHsrvZsuyP-14">
          <mxGeometry relative="1" as="geometry" />
        </mxCell>
        <mxCell id="kFrVJk0bqqYHsrvZsuyP-7" value="number master &amp;gt;1?" style="rhombus;whiteSpace=wrap;html=1;points=[[0,0,0,0,0],[0,0.5,0,0,0],[0,1,0,0,0],[0.5,0,0,0,0],[0.5,1,0,0,0],[1,0,0,0,0],[1,0.5,0,0,0],[1,1,0,0,0]];" vertex="1" parent="WIyWlLk6GJQsqaUBKTNV-1">
          <mxGeometry x="354" y="1700" width="120" height="80" as="geometry" />
        </mxCell>
        <mxCell id="kFrVJk0bqqYHsrvZsuyP-10" value="" style="endArrow=none;html=1;rounded=0;" edge="1" parent="WIyWlLk6GJQsqaUBKTNV-1">
          <mxGeometry width="50" height="50" relative="1" as="geometry">
            <mxPoint x="474" y="1740" as="sourcePoint" />
            <mxPoint x="590" y="1740" as="targetPoint" />
          </mxGeometry>
        </mxCell>
        <mxCell id="kFrVJk0bqqYHsrvZsuyP-11" value="No" style="edgeLabel;html=1;align=center;verticalAlign=middle;resizable=0;points=[];" vertex="1" connectable="0" parent="kFrVJk0bqqYHsrvZsuyP-10">
          <mxGeometry x="-0.0221" y="1" relative="1" as="geometry">
            <mxPoint as="offset" />
          </mxGeometry>
        </mxCell>
        <mxCell id="kFrVJk0bqqYHsrvZsuyP-12" value="&lt;div&gt;1&lt;/div&gt;" style="text;html=1;strokeColor=none;fillColor=none;align=center;verticalAlign=middle;whiteSpace=wrap;rounded=0;" vertex="1" parent="WIyWlLk6GJQsqaUBKTNV-1">
          <mxGeometry x="580" y="1725" width="60" height="30" as="geometry" />
        </mxCell>
        <mxCell id="kFrVJk0bqqYHsrvZsuyP-18" style="edgeStyle=orthogonalEdgeStyle;rounded=0;orthogonalLoop=1;jettySize=auto;html=1;exitX=0.5;exitY=1;exitDx=0;exitDy=0;" edge="1" parent="WIyWlLk6GJQsqaUBKTNV-1" source="kFrVJk0bqqYHsrvZsuyP-14">
          <mxGeometry relative="1" as="geometry">
            <mxPoint x="414" y="1890" as="targetPoint" />
          </mxGeometry>
        </mxCell>
        <mxCell id="kFrVJk0bqqYHsrvZsuyP-20" style="edgeStyle=orthogonalEdgeStyle;rounded=0;orthogonalLoop=1;jettySize=auto;html=1;exitX=1;exitY=0.5;exitDx=0;exitDy=0;entryX=0.5;entryY=1;entryDx=0;entryDy=0;" edge="1" parent="WIyWlLk6GJQsqaUBKTNV-1" source="kFrVJk0bqqYHsrvZsuyP-14" target="lWDbEQPb5hyfI6znCA0R-78">
          <mxGeometry relative="1" as="geometry" />
        </mxCell>
        <mxCell id="kFrVJk0bqqYHsrvZsuyP-64" value="want to exit" style="edgeLabel;html=1;align=center;verticalAlign=middle;resizable=0;points=[];" vertex="1" connectable="0" parent="kFrVJk0bqqYHsrvZsuyP-20">
          <mxGeometry x="-0.8346" y="2" relative="1" as="geometry">
            <mxPoint as="offset" />
          </mxGeometry>
        </mxCell>
        <mxCell id="kFrVJk0bqqYHsrvZsuyP-14" value="insert master want to delete" style="rounded=1;whiteSpace=wrap;html=1;" vertex="1" parent="WIyWlLk6GJQsqaUBKTNV-1">
          <mxGeometry x="354" y="1810" width="120" height="40" as="geometry" />
        </mxCell>
        <mxCell id="kFrVJk0bqqYHsrvZsuyP-23" value="&lt;font style=&quot;font-size: 100px;&quot;&gt;RFID&lt;/font&gt;" style="text;html=1;strokeColor=none;fillColor=none;align=center;verticalAlign=middle;whiteSpace=wrap;rounded=0;" vertex="1" parent="WIyWlLk6GJQsqaUBKTNV-1">
          <mxGeometry x="500" width="360" height="190" as="geometry" />
        </mxCell>
        <mxCell id="kFrVJk0bqqYHsrvZsuyP-32" style="edgeStyle=orthogonalEdgeStyle;rounded=0;orthogonalLoop=1;jettySize=auto;html=1;exitX=0.5;exitY=1;exitDx=0;exitDy=0;" edge="1" parent="WIyWlLk6GJQsqaUBKTNV-1" source="kFrVJk0bqqYHsrvZsuyP-24">
          <mxGeometry relative="1" as="geometry">
            <mxPoint x="412.33333333333326" y="910" as="targetPoint" />
          </mxGeometry>
        </mxCell>
        <mxCell id="kFrVJk0bqqYHsrvZsuyP-42" value="Yes" style="edgeLabel;html=1;align=center;verticalAlign=middle;resizable=0;points=[];" vertex="1" connectable="0" parent="kFrVJk0bqqYHsrvZsuyP-32">
          <mxGeometry x="-0.1427" y="-1" relative="1" as="geometry">
            <mxPoint as="offset" />
          </mxGeometry>
        </mxCell>
        <mxCell id="kFrVJk0bqqYHsrvZsuyP-24" value="number normal &amp;gt; 0?" style="rhombus;whiteSpace=wrap;html=1;" vertex="1" parent="WIyWlLk6GJQsqaUBKTNV-1">
          <mxGeometry x="354" y="792.5" width="116" height="80" as="geometry" />
        </mxCell>
        <mxCell id="kFrVJk0bqqYHsrvZsuyP-33" style="edgeStyle=orthogonalEdgeStyle;rounded=0;orthogonalLoop=1;jettySize=auto;html=1;exitX=0.5;exitY=1;exitDx=0;exitDy=0;entryX=0.5;entryY=0;entryDx=0;entryDy=0;" edge="1" parent="WIyWlLk6GJQsqaUBKTNV-1" source="kFrVJk0bqqYHsrvZsuyP-25" target="kFrVJk0bqqYHsrvZsuyP-26">
          <mxGeometry relative="1" as="geometry" />
        </mxCell>
        <mxCell id="kFrVJk0bqqYHsrvZsuyP-38" value="successfull" style="edgeLabel;html=1;align=center;verticalAlign=middle;resizable=0;points=[];" vertex="1" connectable="0" parent="kFrVJk0bqqYHsrvZsuyP-33">
          <mxGeometry x="-0.1032" y="-2" relative="1" as="geometry">
            <mxPoint as="offset" />
          </mxGeometry>
        </mxCell>
        <mxCell id="kFrVJk0bqqYHsrvZsuyP-43" style="edgeStyle=orthogonalEdgeStyle;rounded=0;orthogonalLoop=1;jettySize=auto;html=1;exitX=1;exitY=0.5;exitDx=0;exitDy=0;entryX=0.5;entryY=1;entryDx=0;entryDy=0;" edge="1" parent="WIyWlLk6GJQsqaUBKTNV-1" source="kFrVJk0bqqYHsrvZsuyP-25" target="lWDbEQPb5hyfI6znCA0R-78">
          <mxGeometry relative="1" as="geometry" />
        </mxCell>
        <mxCell id="kFrVJk0bqqYHsrvZsuyP-61" value="want to exit" style="edgeLabel;html=1;align=center;verticalAlign=middle;resizable=0;points=[];" vertex="1" connectable="0" parent="kFrVJk0bqqYHsrvZsuyP-43">
          <mxGeometry x="-0.2431" y="2" relative="1" as="geometry">
            <mxPoint as="offset" />
          </mxGeometry>
        </mxCell>
        <mxCell id="kFrVJk0bqqYHsrvZsuyP-25" value="insert card want to delete" style="rounded=1;whiteSpace=wrap;html=1;" vertex="1" parent="WIyWlLk6GJQsqaUBKTNV-1">
          <mxGeometry x="352" y="910" width="120" height="40" as="geometry" />
        </mxCell>
        <mxCell id="kFrVJk0bqqYHsrvZsuyP-28" style="edgeStyle=orthogonalEdgeStyle;rounded=0;orthogonalLoop=1;jettySize=auto;html=1;exitX=0.5;exitY=1;exitDx=0;exitDy=0;entryX=0.5;entryY=0;entryDx=0;entryDy=0;" edge="1" parent="WIyWlLk6GJQsqaUBKTNV-1" source="kFrVJk0bqqYHsrvZsuyP-26" target="kFrVJk0bqqYHsrvZsuyP-27">
          <mxGeometry relative="1" as="geometry" />
        </mxCell>
        <mxCell id="kFrVJk0bqqYHsrvZsuyP-34" value="Yes" style="edgeLabel;html=1;align=center;verticalAlign=middle;resizable=0;points=[];" vertex="1" connectable="0" parent="kFrVJk0bqqYHsrvZsuyP-28">
          <mxGeometry x="-0.0012" relative="1" as="geometry">
            <mxPoint as="offset" />
          </mxGeometry>
        </mxCell>
        <mxCell id="kFrVJk0bqqYHsrvZsuyP-26" value="exist ?" style="rhombus;whiteSpace=wrap;html=1;" vertex="1" parent="WIyWlLk6GJQsqaUBKTNV-1">
          <mxGeometry x="352" y="1000" width="120" height="80" as="geometry" />
        </mxCell>
        <mxCell id="kFrVJk0bqqYHsrvZsuyP-46" style="edgeStyle=orthogonalEdgeStyle;rounded=0;orthogonalLoop=1;jettySize=auto;html=1;exitX=1;exitY=0.5;exitDx=0;exitDy=0;" edge="1" parent="WIyWlLk6GJQsqaUBKTNV-1" source="kFrVJk0bqqYHsrvZsuyP-27">
          <mxGeometry relative="1" as="geometry">
            <mxPoint x="550" y="1129.888888888889" as="targetPoint" />
          </mxGeometry>
        </mxCell>
        <mxCell id="kFrVJk0bqqYHsrvZsuyP-27" value="delete card" style="rounded=1;whiteSpace=wrap;html=1;" vertex="1" parent="WIyWlLk6GJQsqaUBKTNV-1">
          <mxGeometry x="352" y="1110" width="120" height="40" as="geometry" />
        </mxCell>
        <mxCell id="kFrVJk0bqqYHsrvZsuyP-35" value="" style="endArrow=none;html=1;rounded=0;" edge="1" parent="WIyWlLk6GJQsqaUBKTNV-1">
          <mxGeometry width="50" height="50" relative="1" as="geometry">
            <mxPoint x="472" y="1040" as="sourcePoint" />
            <mxPoint x="550" y="1040" as="targetPoint" />
          </mxGeometry>
        </mxCell>
        <mxCell id="kFrVJk0bqqYHsrvZsuyP-36" value="No" style="edgeLabel;html=1;align=center;verticalAlign=middle;resizable=0;points=[];" vertex="1" connectable="0" parent="kFrVJk0bqqYHsrvZsuyP-35">
          <mxGeometry x="-0.005" relative="1" as="geometry">
            <mxPoint as="offset" />
          </mxGeometry>
        </mxCell>
        <mxCell id="kFrVJk0bqqYHsrvZsuyP-37" value="&lt;div&gt;1&lt;/div&gt;" style="text;html=1;strokeColor=none;fillColor=none;align=center;verticalAlign=middle;whiteSpace=wrap;rounded=0;" vertex="1" parent="WIyWlLk6GJQsqaUBKTNV-1">
          <mxGeometry x="530" y="1025" width="60" height="30" as="geometry" />
        </mxCell>
        <mxCell id="kFrVJk0bqqYHsrvZsuyP-39" value="" style="endArrow=none;html=1;rounded=0;" edge="1" parent="WIyWlLk6GJQsqaUBKTNV-1" target="kFrVJk0bqqYHsrvZsuyP-41">
          <mxGeometry width="50" height="50" relative="1" as="geometry">
            <mxPoint x="470" y="832.25" as="sourcePoint" />
            <mxPoint x="546" y="832.75" as="targetPoint" />
          </mxGeometry>
        </mxCell>
        <mxCell id="kFrVJk0bqqYHsrvZsuyP-40" value="&lt;div&gt;No&lt;/div&gt;" style="edgeLabel;html=1;align=center;verticalAlign=middle;resizable=0;points=[];" vertex="1" connectable="0" parent="kFrVJk0bqqYHsrvZsuyP-39">
          <mxGeometry x="-0.1574" y="1" relative="1" as="geometry">
            <mxPoint as="offset" />
          </mxGeometry>
        </mxCell>
        <mxCell id="kFrVJk0bqqYHsrvZsuyP-41" value="&lt;div&gt;1&lt;/div&gt;" style="text;html=1;strokeColor=none;fillColor=none;align=center;verticalAlign=middle;whiteSpace=wrap;rounded=0;" vertex="1" parent="WIyWlLk6GJQsqaUBKTNV-1">
          <mxGeometry x="516" y="817.5" width="60" height="30" as="geometry" />
        </mxCell>
        <mxCell id="kFrVJk0bqqYHsrvZsuyP-47" value="1" style="text;html=1;strokeColor=none;fillColor=none;align=center;verticalAlign=middle;whiteSpace=wrap;rounded=0;" vertex="1" parent="WIyWlLk6GJQsqaUBKTNV-1">
          <mxGeometry x="550" y="1115" width="60" height="30" as="geometry" />
        </mxCell>
        <mxCell id="kFrVJk0bqqYHsrvZsuyP-50" style="edgeStyle=orthogonalEdgeStyle;rounded=0;orthogonalLoop=1;jettySize=auto;html=1;exitX=0.5;exitY=1;exitDx=0;exitDy=0;entryX=0.5;entryY=0;entryDx=0;entryDy=0;" edge="1" parent="WIyWlLk6GJQsqaUBKTNV-1" source="kFrVJk0bqqYHsrvZsuyP-48" target="kFrVJk0bqqYHsrvZsuyP-49">
          <mxGeometry relative="1" as="geometry" />
        </mxCell>
        <mxCell id="kFrVJk0bqqYHsrvZsuyP-51" value="&lt;div&gt;Yes&lt;/div&gt;" style="edgeLabel;html=1;align=center;verticalAlign=middle;resizable=0;points=[];" vertex="1" connectable="0" parent="kFrVJk0bqqYHsrvZsuyP-50">
          <mxGeometry x="-0.24" y="-1" relative="1" as="geometry">
            <mxPoint as="offset" />
          </mxGeometry>
        </mxCell>
        <mxCell id="kFrVJk0bqqYHsrvZsuyP-53" style="edgeStyle=orthogonalEdgeStyle;rounded=0;orthogonalLoop=1;jettySize=auto;html=1;exitX=1;exitY=0.5;exitDx=0;exitDy=0;entryX=0;entryY=0.5;entryDx=0;entryDy=0;" edge="1" parent="WIyWlLk6GJQsqaUBKTNV-1" source="kFrVJk0bqqYHsrvZsuyP-48" target="kFrVJk0bqqYHsrvZsuyP-52">
          <mxGeometry relative="1" as="geometry" />
        </mxCell>
        <mxCell id="kFrVJk0bqqYHsrvZsuyP-54" value="No" style="edgeLabel;html=1;align=center;verticalAlign=middle;resizable=0;points=[];" vertex="1" connectable="0" parent="kFrVJk0bqqYHsrvZsuyP-53">
          <mxGeometry x="-0.038" y="-1" relative="1" as="geometry">
            <mxPoint as="offset" />
          </mxGeometry>
        </mxCell>
        <mxCell id="kFrVJk0bqqYHsrvZsuyP-48" value="exist ?" style="rhombus;whiteSpace=wrap;html=1;" vertex="1" parent="WIyWlLk6GJQsqaUBKTNV-1">
          <mxGeometry x="359.25" y="1890" width="109.5" height="80" as="geometry" />
        </mxCell>
        <mxCell id="kFrVJk0bqqYHsrvZsuyP-57" style="edgeStyle=orthogonalEdgeStyle;rounded=0;orthogonalLoop=1;jettySize=auto;html=1;exitX=1;exitY=0.5;exitDx=0;exitDy=0;entryX=0;entryY=0.5;entryDx=0;entryDy=0;" edge="1" parent="WIyWlLk6GJQsqaUBKTNV-1" source="kFrVJk0bqqYHsrvZsuyP-49" target="kFrVJk0bqqYHsrvZsuyP-56">
          <mxGeometry relative="1" as="geometry" />
        </mxCell>
        <mxCell id="kFrVJk0bqqYHsrvZsuyP-49" value="delete card" style="rounded=1;whiteSpace=wrap;html=1;" vertex="1" parent="WIyWlLk6GJQsqaUBKTNV-1">
          <mxGeometry x="354" y="2000" width="120" height="40" as="geometry" />
        </mxCell>
        <mxCell id="kFrVJk0bqqYHsrvZsuyP-52" value="1" style="text;html=1;strokeColor=none;fillColor=none;align=center;verticalAlign=middle;whiteSpace=wrap;rounded=0;" vertex="1" parent="WIyWlLk6GJQsqaUBKTNV-1">
          <mxGeometry x="520" y="1915" width="60" height="30" as="geometry" />
        </mxCell>
        <mxCell id="kFrVJk0bqqYHsrvZsuyP-55" style="edgeStyle=orthogonalEdgeStyle;rounded=0;orthogonalLoop=1;jettySize=auto;html=1;exitX=0;exitY=0.5;exitDx=0;exitDy=0;entryX=0;entryY=0.5;entryDx=0;entryDy=0;entryPerimeter=0;" edge="1" parent="WIyWlLk6GJQsqaUBKTNV-1" source="kFrVJk0bqqYHsrvZsuyP-49" target="kFrVJk0bqqYHsrvZsuyP-7">
          <mxGeometry relative="1" as="geometry" />
        </mxCell>
        <mxCell id="kFrVJk0bqqYHsrvZsuyP-56" value="1" style="text;html=1;strokeColor=none;fillColor=none;align=center;verticalAlign=middle;whiteSpace=wrap;rounded=0;" vertex="1" parent="WIyWlLk6GJQsqaUBKTNV-1">
          <mxGeometry x="530" y="2005" width="60" height="30" as="geometry" />
        </mxCell>
      </root>
    </mxGraphModel>
  </diagram>
</mxfile>
